<?xml version="1.0" encoding="UTF-8" standalone="yes"?>
<svg xmlns="http://www.w3.org/2000/svg" width="480" height="220" viewBox="0 0 480 220"><title>Generated Animation</title>
<desc>4 frames, 0.520s duration</desc>
<g id="animationGroup">
<g id="frame0" opacity="0">

<path d="M0,0 L7,1 L15,7 L24,17 L31,26 L39,37 L47,48 L60,61 L78,73 L87,84 L92,91 L93,95 L93,103 L87,112 L79,120 L72,128 L62,138 L54,145 L47,153 L40,160 L38,163 L36,163 L35,166 L27,173 L16,185 L11,190 L5,194 L-6,194 L-15,187 L-24,178 L-33,171 L-46,159 L-54,152 L-68,137 L-78,122 L-85,113 L-91,106 L-93,100 L-92,92 L-87,84 L-78,75 L-73,71 L-65,60 L-58,50 L-51,42 L-42,35 L-35,34 L-30,38 L-25,43 L-18,50 L-15,52 L-16,70 L-14,74 L-3,78 L-3,114 L-5,125 L-11,130 L-18,139 L-18,147 L-13,153 L-11,154 L-3,154 L5,151 L9,147 L10,138 L0,129 L-1,127 L0,115 L2,100 L3,80 L7,76 L10,75 L17,81 L22,86 L27,91 L28,93 L29,105 L33,110 L36,111 L43,111 L48,106 L49,103 L49,94 L47,88 L40,86 L33,87 L15,75 L13,72 L14,53 L11,46 L7,44 L0,44 L-8,46 L-13,42 L-20,30 L-24,24 L-23,19 L-12,7 L-3,1 Z " fill="#FD511A" transform="translate(108,16)"/>
<path d="M0,0 L25,0 L43,2 L54,6 L57,11 L56,18 L52,22 L49,23 L42,23 L39,22 L40,24 L40,39 L36,49 L28,59 L21,64 L12,67 L-3,67 L-10,73 L-17,82 L-17,84 L-3,85 L18,82 L33,82 L43,87 L50,94 L56,106 L57,111 L57,121 L53,129 L43,136 L31,142 L28,143 L5,144 L-12,140 L-23,134 L-29,129 L-33,122 L-35,116 L-34,107 L-31,101 L-32,97 L-36,92 L-37,89 L-37,82 L-33,72 L-25,62 L-20,60 L-25,52 L-29,41 L-29,24 L-25,15 L-15,5 L-4,1 Z M2,20 L-6,22 L-13,28 L-14,30 L-14,39 L-8,46 L1,49 L11,49 L16,45 L23,35 L24,29 L20,25 L15,21 Z M-9,104 L-17,110 L-18,112 L-14,118 L-3,125 L6,127 L18,126 L27,122 L33,117 L33,111 L28,105 L24,104 Z " fill="#FD521C" transform="translate(276,62)"/>
<path d="M0,0 L6,1 L8,4 L8,19 L17,19 L32,20 L38,23 L41,27 L40,35 L35,39 L11,41 L12,47 L12,83 L14,89 L20,96 L30,98 L39,97 L44,100 L46,104 L46,110 L41,115 L31,120 L4,120 L-6,115 L-12,108 L-15,98 L-14,88 L-13,86 L-11,46 L-10,41 L-20,39 L-25,34 L-24,27 L-18,24 L-13,22 L-7,17 L-3,2 Z " fill="#FD521C" transform="translate(417,39)"/>
<path d="M0,0 L27,1 L32,6 L32,12 L28,16 L27,27 L27,82 L35,85 L37,91 L35,95 L30,97 L2,100 L-7,97 L-12,92 L-12,86 L-9,82 L-1,82 L4,83 L4,73 L5,65 L5,41 L2,16 L-8,14 L-12,11 L-11,4 L-6,1 Z " fill="#FD521C" transform="translate(351,64)"/>
<path d="M0,0 L9,0 L15,4 L19,11 L21,18 L21,28 L17,35 L11,39 L7,40 L-2,40 L-9,36 L-13,28 L-13,20 L-10,9 L-4,2 Z " fill="#FE521C" transform="translate(361,14)"/>
<path d="M0,0 L2,1 L3,6 L2,9 L0,10 L0,18 L-2,16 L-3,8 Z " fill="#FE5A26" transform="translate(18,104)"/>
<path d="M0,0 L1,0 L1,5 L-7,13 L-8,11 L-15,11 L-15,10 L-8,9 L-3,4 Z " fill="#FE5E2B" transform="translate(295,101)"/>
<path d="M0,0 L1,4 L3,5 L2,10 L0,10 L0,19 L-2,18 L-1,6 Z " fill="#FE5E2B" transform="translate(109,125)"/>
<path d="M0,0 L1,3 L1,5 L-1,5 L-2,8 L-4,8 L-8,9 L-4,3 Z " fill="#FE5925" transform="translate(254,122)"/>
<path d="M0,0 L1,0 L1,6 L3,7 L0,8 L1,14 L-1,17 L-2,16 L-2,8 Z " fill="#FE5D2A" transform="translate(350,26)"/>
<path d="M0,0 L3,0 L3,4 L5,4 L3,8 L1,10 Z " fill="#FE5F2D" transform="translate(402,131)"/>
<path d="M0,0 L2,4 L5,4 L5,6 L7,7 L4,10 L0,4 Z " fill="#FD5B27" transform="translate(84,36)"/>
<path d="M0,0 L1,0 L2,9 L5,11 L3,14 L0,13 Z " fill="#FD5A25" transform="translate(406,85)"/>
<path d="M0,0 L5,1 L3,5 L1,9 Z " fill="#FE5B27" transform="translate(157,108)"/>
<path d="M0,0 L2,3 L0,9 L-3,9 L-2,4 Z " fill="#FE5D29" transform="translate(246,160)"/>
<path d="M0,0 L2,4 L1,8 L-1,8 L-1,1 Z " fill="#FE5E2C" transform="translate(240,143)"/>
<path d="M0,0 L6,0 L6,2 L2,3 L0,6 Z " fill="#FE5F2D" transform="translate(355,91)"/>

<animate attributeName="opacity" dur="0.520000s" values="0;1;0" keyTimes="0;0.000000;0.250000" calcMode="discrete" repeatCount="indefinite" begin="0s"/>
</g>
<g id="frame1" opacity="0">

<path d="M0,0 L10,0 L16,3 L24,11 L31,19 L41,30 L49,37 L62,50 L70,57 L78,67 L86,78 L91,84 L97,94 L99,101 L98,111 L93,121 L84,131 L67,148 L59,155 L40,174 L23,187 L12,194 L7,196 L-2,196 L-16,189 L-22,182 L-29,176 L-36,167 L-42,162 L-50,152 L-58,146 L-65,138 L-74,131 L-81,123 L-91,110 L-93,101 L-90,94 L-85,90 L-74,76 L-68,67 L-59,57 L-49,49 L-41,45 L-32,46 L-25,47 L-16,57 L-12,60 L-13,71 L-11,78 L-6,82 L1,82 L0,93 L-1,120 L0,130 L-7,133 L-11,139 L-10,148 L-9,151 L-4,153 L-1,155 L5,154 L12,146 L14,142 L13,134 L6,126 L6,115 L10,99 L11,86 L16,85 L25,95 L29,97 L30,104 L32,112 L37,116 L44,117 L50,114 L53,108 L53,98 L48,92 L41,89 L35,89 L28,82 L20,78 L15,74 L14,70 L15,67 L15,55 L11,51 L-5,51 L-13,44 L-23,30 L-24,24 L-19,14 L-11,6 Z " fill="#FD511B" transform="translate(104,11)"/>
<path d="M0,0 L33,1 L39,4 L41,7 L40,14 L36,17 L30,19 L34,27 L35,35 L32,45 L26,55 L15,66 L4,70 L-13,70 L-17,68 L-20,68 L-26,76 L-21,75 L9,76 L22,79 L31,84 L39,92 L42,99 L42,109 L38,116 L29,124 L15,130 L2,133 L-24,136 L-35,136 L-45,132 L-52,124 L-55,117 L-56,108 L-54,100 L-50,93 L-51,89 L-53,85 L-53,74 L-49,67 L-44,62 L-45,58 L-49,50 L-50,39 L-47,22 L-41,12 L-33,5 L-22,1 Z M0,15 L-22,18 L-28,22 L-30,30 L-30,38 L-27,43 L-19,48 L-4,49 L3,46 L12,37 L14,31 L5,24 L1,15 Z M-21,99 L-25,104 L-32,108 L-32,112 L-28,113 L-14,111 L4,109 L17,104 L14,101 L6,99 Z " fill="#FD521C" transform="translate(292,65)"/>
<path d="M0,0 L8,1 L13,5 L15,10 L15,17 L13,22 L12,29 L28,27 L37,27 L42,30 L45,34 L46,40 L43,46 L37,50 L22,52 L12,52 L13,57 L14,78 L18,99 L22,105 L38,106 L43,110 L42,116 L34,121 L27,124 L16,124 L2,119 L-3,114 L-7,107 L-10,93 L-11,72 L-13,63 L-13,53 L-19,51 L-28,46 L-29,44 L-29,38 L-26,35 L-12,31 L-8,26 L-7,16 L-6,9 L-4,3 Z " fill="#FD521C" transform="translate(418,32)"/>
<path d="M0,0 L27,1 L32,4 L34,8 L33,14 L32,16 L33,40 L34,60 L33,77 L42,78 L46,82 L47,88 L44,94 L41,96 L33,97 L0,97 L-7,94 L-10,91 L-11,85 L-8,79 L-3,76 L6,76 L5,72 L5,23 L6,18 L-6,15 L-9,11 L-9,6 L-4,1 Z " fill="#FD521C" transform="translate(347,67)"/>
<path d="M0,0 L9,0 L16,4 L21,10 L23,19 L20,28 L15,34 L9,37 L1,37 L-6,33 L-9,27 L-10,12 L-6,4 Z " fill="#FD531D" transform="translate(356,16)"/>
<path d="M0,0 L2,3 L2,8 L3,10 L1,13 L-1,4 Z " fill="#FD5D2A" transform="translate(12,108)"/>
<path d="M0,0 L5,0 L1,2 L-4,6 L-3,2 Z " fill="#FD5F2C" transform="translate(418,32)"/>

<animate attributeName="opacity" dur="0.520000s" values="0;1;0" keyTimes="0;0.250000;0.500000" calcMode="discrete" repeatCount="indefinite" begin="0s"/>
</g>
<g id="frame2" opacity="0">

<path d="M0,0 L10,0 L23,4 L33,14 L40,22 L50,31 L61,40 L69,48 L80,62 L88,78 L93,90 L93,109 L88,119 L79,128 L72,136 L36,172 L27,179 L19,185 L10,189 L3,189 L-7,186 L-17,180 L-28,173 L-44,161 L-53,152 L-62,141 L-73,128 L-81,118 L-89,109 L-91,105 L-90,97 L-88,95 L-85,83 L-78,74 L-66,60 L-59,53 L-47,44 L-39,39 L-34,36 L-28,38 L-21,46 L-15,51 L-10,62 L-11,71 L-6,76 L-1,82 L0,85 L-1,119 L-3,133 L-6,139 L-10,143 L-8,148 L-1,153 L7,154 L12,149 L14,140 L14,132 L11,127 L6,122 L5,116 L5,78 L9,75 L15,76 L21,83 L25,90 L26,95 L27,110 L29,117 L37,119 L44,118 L52,111 L53,98 L50,89 L35,83 L27,76 L21,69 L16,64 L13,52 L9,47 L5,45 L-5,44 L-16,33 L-17,31 L-22,28 L-24,23 L-15,12 L-6,3 Z " fill="#FD511A" transform="translate(105,15)"/>
<path d="M0,0 L23,0 L29,3 L32,7 L32,14 L27,19 L22,21 L13,21 L8,19 L14,28 L17,37 L17,50 L13,59 L6,66 L-4,72 L-13,75 L-19,76 L-27,76 L-35,75 L-37,79 L-35,80 L-9,82 L7,85 L17,91 L22,97 L23,100 L23,110 L18,118 L9,125 L-3,131 L-19,136 L-33,138 L-47,138 L-55,135 L-61,130 L-66,120 L-65,109 L-61,101 L-55,96 L-51,94 L-60,92 L-65,86 L-65,77 L-61,71 L-55,66 L-61,57 L-64,42 L-64,34 L-63,23 L-61,15 L-55,10 L-45,9 L-35,3 L-21,1 Z M-38,21 L-44,24 L-47,27 L-47,37 L-39,48 L-30,52 L-17,52 L-9,48 L-6,45 L-7,38 L-10,28 L-14,24 L-22,22 Z M-32,95 L-35,102 L-48,109 L-46,114 L-42,116 L-21,116 L-5,112 L4,107 L6,104 L-4,99 L-21,95 Z " fill="#FD521C" transform="translate(302,66)"/>
<path d="M0,0 L10,2 L13,5 L13,24 L12,28 L35,27 L40,29 L42,32 L42,38 L37,43 L27,46 L22,47 L13,47 L16,57 L17,78 L16,99 L36,102 L41,105 L43,107 L43,113 L37,118 L23,123 L11,123 L1,118 L-5,113 L-10,106 L-13,96 L-13,71 L-12,49 L-25,46 L-29,42 L-28,35 L-21,29 L-12,25 L-7,20 L-4,3 Z " fill="#FD521B" transform="translate(417,36)"/>
<path d="M0,0 L6,1 L10,6 L9,11 L3,16 L4,19 L5,33 L5,80 L12,82 L16,86 L15,91 L11,94 L7,95 L-9,96 L-12,97 L-26,97 L-30,93 L-32,83 L-29,78 L-17,76 L-19,70 L-20,63 L-20,39 L-19,21 L-18,16 L-29,16 L-33,12 L-32,7 L-27,3 L-23,2 Z " fill="#FD521C" transform="translate(373,64)"/>
<path d="M0,0 L11,0 L17,4 L22,12 L25,21 L24,30 L20,36 L16,40 L13,41 L3,41 L-2,38 L-12,28 L-14,22 L-13,14 L-9,7 L-2,1 Z " fill="#FD521B" transform="translate(357,13)"/>
<path d="M0,0 L0,3 L-4,8 L-5,13 L-7,12 L-6,5 Z " fill="#FD5D2A" transform="translate(395,66)"/>
<path d="M0,0 L2,0 L3,5 L2,13 L0,10 Z " fill="#FD5D2A" transform="translate(110,93)"/>
<path d="M0,0 L2,1 L2,10 L0,12 L-1,8 Z " fill="#FD612F" transform="translate(103,99)"/>
<path d="M0,0 L2,1 L-1,6 L-1,11 L-4,8 L-3,3 Z " fill="#FD5E2B" transform="translate(344,68)"/>
<path d="M0,0 L6,1 L6,2 L0,3 L-8,2 L-8,1 Z " fill="#FD6B3C" transform="translate(373,64)"/>
<path d="M0,0 L7,1 L3,4 L-2,2 Z " fill="#FD612F" transform="translate(417,36)"/>

<animate attributeName="opacity" dur="0.520000s" values="0;1;0" keyTimes="0;0.500000;0.750000" calcMode="discrete" repeatCount="indefinite" begin="0s"/>
</g>
<g id="frame3" opacity="0">

<path d="M0,0 L9,0 L18,6 L41,29 L49,36 L59,45 L75,60 L82,68 L96,94 L97,97 L97,107 L94,115 L72,137 L64,144 L50,159 L36,170 L22,181 L14,188 L9,192 L0,194 L-7,191 L-15,184 L-24,174 L-34,160 L-45,150 L-55,142 L-68,130 L-75,122 L-89,103 L-91,99 L-91,88 L-86,83 L-75,76 L-48,49 L-39,38 L-33,35 L-28,37 L-23,42 L-15,50 L-13,51 L-15,55 L-17,59 L-17,65 L-14,70 L-8,74 L0,78 L4,84 L4,98 L1,127 L-6,130 L-9,136 L-9,143 L-6,148 L-2,150 L6,150 L12,148 L13,144 L13,136 L10,128 L6,121 L7,112 L7,84 L10,81 L15,83 L22,91 L30,97 L28,106 L31,111 L35,114 L43,114 L50,108 L51,106 L50,97 L44,89 L36,85 L27,82 L14,70 L11,66 L9,53 L5,49 L-7,47 L-12,42 L-18,34 L-23,28 L-25,22 L-24,16 L-20,10 L-10,4 Z " fill="#FD511B" transform="translate(106,13)"/>
<path d="M0,0 L17,0 L25,3 L26,5 L26,11 L20,15 L11,15 L13,20 L14,32 L12,43 L7,52 L2,57 L-3,61 L-14,66 L-33,69 L-40,76 L-40,77 L-23,73 L-12,70 L2,69 L11,71 L19,76 L27,85 L31,95 L31,109 L27,115 L19,122 L-7,134 L-19,137 L-31,137 L-43,134 L-56,126 L-63,118 L-65,111 L-65,102 L-61,96 L-53,91 L-54,86 L-59,80 L-59,69 L-55,61 L-57,57 L-63,45 L-65,37 L-65,26 L-60,16 L-53,9 L-47,6 L-31,4 L-11,1 Z M-21,14 L-34,18 L-40,27 L-43,38 L-42,43 L-39,44 L-20,44 L-9,41 L-4,35 L-4,26 L-7,21 L-12,18 L-14,14 Z M-8,93 L-24,97 L-42,96 L-52,103 L-51,108 L-47,113 L-39,118 L-36,119 L-22,119 L0,111 L6,108 L8,106 L8,99 L3,93 Z " fill="#FD521C" transform="translate(303,68)"/>
<path d="M0,0 L6,1 L9,4 L10,11 L8,19 L32,23 L37,26 L38,27 L38,34 L33,39 L23,42 L18,43 L10,43 L12,50 L15,88 L16,95 L19,97 L26,97 L33,95 L41,96 L46,101 L47,103 L47,111 L42,117 L30,121 L17,121 L4,116 L-4,109 L-8,100 L-10,79 L-12,48 L-11,42 L-18,40 L-23,37 L-24,36 L-24,31 L-12,18 L-4,3 Z " fill="#FD521C" transform="translate(415,40)"/>
<path d="M0,0 L24,0 L28,2 L30,8 L27,13 L23,15 L19,15 L23,22 L24,26 L25,78 L33,81 L36,85 L36,92 L31,97 L29,98 L19,99 L-3,99 L-11,96 L-15,91 L-16,89 L-15,80 L-8,74 L-1,72 L0,63 L1,20 L3,15 L-6,13 L-9,10 L-9,5 L-6,2 Z " fill="#FD521C" transform="translate(354,64)"/>
<path d="M0,0 L8,1 L13,5 L17,13 L18,16 L18,24 L14,32 L9,36 L0,37 L-7,33 L-11,27 L-14,19 L-14,13 L-8,4 Z " fill="#FD531D" transform="translate(364,18)"/>
<path d="M0,0 L1,0 L2,13 L-1,12 L-1,1 Z " fill="#FD5E2B" transform="translate(239,93)"/>
<path d="M0,0 L1,3 L-2,8 L-5,9 L-6,12 L-6,7 Z " fill="#FD5D29" transform="translate(397,64)"/>
<path d="M0,0 L2,0 L0,6 L-1,8 L-3,8 L-3,3 Z " fill="#FD5F2D" transform="translate(348,66)"/>
<path d="M0,0 L7,0 L10,3 L7,3 L0,1 Z " fill="#FD5F2D" transform="translate(396,78)"/>

<animate attributeName="opacity" dur="0.520000s" values="0;1;0" keyTimes="0;0.750000;1.000000" calcMode="discrete" repeatCount="indefinite" begin="0s"/>
</g>
</g>
</svg>
