<?xml version="1.0" encoding="UTF-8" standalone="yes"?>
<svg xmlns="http://www.w3.org/2000/svg" width="480" height="472" viewBox="0 0 480 472"><title>Generated Animation</title>
<desc>4 frames, 0.560s duration</desc>
<g id="animationGroup">
<g id="frame0" opacity="0">

<path d="M0,0 L11,0 L19,4 L29,10 L49,19 L60,23 L102,25 L113,27 L127,34 L130,39 L130,47 L126,55 L126,67 L128,100 L129,131 L130,222 L129,286 L126,342 L123,374 L122,398 L117,403 L93,414 L76,422 L56,434 L41,442 L25,447 L14,451 L1,451 L-6,447 L-16,438 L-21,433 L-33,422 L-44,409 L-51,401 L-64,389 L-77,379 L-90,368 L-98,361 L-107,351 L-112,347 L-121,336 L-133,321 L-141,310 L-149,299 L-154,289 L-160,280 L-164,274 L-170,278 L-183,289 L-201,302 L-218,315 L-234,326 L-246,336 L-263,347 L-275,353 L-278,354 L-286,354 L-307,348 L-319,343 L-329,336 L-331,331 L-331,287 L-329,261 L-327,203 L-327,133 L-328,125 L-326,116 L-321,107 L-310,95 L-295,80 L-289,77 L-280,78 L-273,86 L-261,94 L-248,107 L-233,117 L-221,128 L-214,135 L-206,142 L-189,159 L-172,171 L-168,171 L-162,155 L-148,138 L-141,131 L-137,126 L-129,119 L-113,103 L-100,93 L-86,81 L-72,69 L-60,58 L-49,49 L-40,41 L-33,33 L-27,23 L-17,12 L-10,9 L-2,1 Z M-2,147 L-21,161 L-38,173 L-54,185 L-72,199 L-90,212 L-99,218 L-99,220 L-81,231 L-68,241 L-51,253 L-35,265 L-21,274 L-17,276 L-16,238 L-12,206 L-8,186 L0,151 L0,147 Z M-264,188 L-265,249 L-260,247 L-247,237 L-236,228 L-226,219 L-228,215 L-236,207 L-255,193 L-261,188 Z " fill="#007ACC" transform="translate(342,11)"/>
<path d="M0,0 L0,3 L-3,4 L-5,9 L-7,10 L-8,15 L-13,17 L-17,21 L-19,20 L-10,10 L-3,2 Z " fill="#0C7FCD" transform="translate(208,135)"/>
<path d="M0,0 L7,6 L9,9 L6,9 L-1,2 Z " fill="#0B7FCE" transform="translate(310,431)"/>
<path d="M0,0 L3,0 L7,5 L5,8 L0,2 Z M4,0 Z " fill="#1080CE" transform="translate(111,222)"/>
<path d="M0,0 L0,3 L-3,4 L-5,9 L-7,7 L-3,2 Z " fill="#1886D0" transform="translate(208,135)"/>
<path d="M0,0 L1,0 L2,10 L-1,10 L-1,1 Z " fill="#248BD2" transform="translate(342,156)"/>

<animate attributeName="opacity" dur="0.560000s" values="0;1;0" keyTimes="0;0.000000;0.250000" calcMode="discrete" repeatCount="indefinite" begin="0s"/>
</g>
<g id="frame1" opacity="0">

<path d="M0,0 L11,0 L30,5 L46,12 L58,20 L72,29 L91,42 L101,50 L109,64 L114,74 L115,80 L117,116 L117,166 L114,200 L113,218 L114,261 L111,281 L106,302 L106,333 L107,353 L109,370 L109,391 L105,397 L99,402 L82,406 L59,418 L37,431 L22,439 L9,445 L-1,446 L-13,440 L-30,426 L-37,418 L-46,405 L-57,391 L-68,377 L-78,363 L-95,346 L-108,329 L-123,314 L-127,309 L-136,303 L-144,294 L-152,287 L-163,278 L-171,269 L-176,271 L-186,277 L-203,289 L-222,303 L-236,314 L-251,326 L-259,333 L-266,340 L-273,349 L-282,355 L-289,356 L-295,354 L-307,352 L-324,344 L-341,335 L-344,331 L-345,325 L-342,319 L-340,317 L-337,294 L-336,277 L-336,219 L-339,200 L-342,180 L-342,141 L-339,126 L-338,109 L-323,94 L-307,82 L-299,76 L-297,75 L-289,75 L-275,82 L-266,92 L-255,108 L-246,118 L-230,133 L-219,143 L-214,148 L-198,164 L-185,174 L-180,175 L-165,159 L-151,145 L-140,136 L-133,129 L-125,122 L-112,110 L-104,103 L-87,86 L-79,79 L-64,66 L-48,54 L-35,41 L-28,33 L-19,21 L-14,11 L-8,4 Z M-19,145 L-35,158 L-46,167 L-58,178 L-75,191 L-88,201 L-105,212 L-114,218 L-117,223 L-117,225 L-106,232 L-95,243 L-84,252 L-71,265 L-56,275 L-32,289 L-16,300 L-13,299 L-14,215 L-16,191 L-17,145 Z M-286,178 L-288,212 L-288,264 L-286,279 L-282,277 L-266,262 L-255,252 L-241,241 L-233,234 L-234,230 L-244,222 L-253,215 L-261,207 L-270,196 L-279,185 L-284,178 Z " fill="#0079CB" transform="translate(351,12)"/>

<animate attributeName="opacity" dur="0.560000s" values="0;1;0" keyTimes="0;0.250000;0.500000" calcMode="discrete" repeatCount="indefinite" begin="0s"/>
</g>
<g id="frame2" opacity="0">

<path d="M0,0 L9,0 L24,4 L49,16 L61,22 L76,27 L88,32 L93,37 L97,42 L101,53 L106,81 L108,104 L108,135 L109,144 L109,162 L105,179 L103,201 L107,215 L111,244 L112,261 L112,292 L110,349 L109,371 L109,382 L106,390 L101,395 L91,401 L87,403 L77,405 L51,415 L19,424 L0,429 L-8,429 L-15,425 L-29,413 L-39,404 L-47,397 L-65,379 L-73,372 L-83,363 L-91,356 L-102,345 L-109,337 L-120,325 L-132,312 L-141,302 L-148,294 L-163,278 L-172,269 L-175,266 L-191,276 L-205,286 L-225,298 L-247,312 L-267,326 L-281,338 L-291,344 L-301,344 L-311,340 L-323,331 L-332,326 L-335,323 L-334,314 L-337,303 L-340,284 L-341,273 L-341,261 L-338,232 L-337,223 L-337,201 L-338,188 L-338,150 L-336,119 L-332,111 L-324,104 L-309,95 L-290,88 L-280,84 L-271,84 L-266,88 L-258,93 L-253,98 L-244,109 L-236,117 L-224,125 L-214,134 L-200,146 L-186,157 L-184,159 L-177,159 L-165,146 L-152,133 L-144,126 L-137,119 L-126,110 L-115,101 L-104,92 L-92,81 L-84,73 L-76,66 L-56,46 L-49,38 L-36,26 L-25,17 L-15,8 L-4,1 Z M-6,128 L-22,140 L-37,149 L-53,159 L-74,173 L-88,183 L-98,192 L-106,199 L-116,207 L-115,210 L-106,216 L-85,230 L-77,237 L-70,245 L-52,263 L-44,270 L-32,282 L-17,293 L-11,296 L-10,293 L-9,273 L-7,182 L-4,151 L-4,128 Z M-286,176 L-287,180 L-288,215 L-289,234 L-289,264 L-286,264 L-278,256 L-274,251 L-261,242 L-245,231 L-231,221 L-226,217 L-228,212 L-235,203 L-248,195 L-272,187 L-281,180 L-284,176 Z " fill="#0079CB" transform="translate(352,17)"/>

<animate attributeName="opacity" dur="0.560000s" values="0;1;0" keyTimes="0;0.500000;0.750000" calcMode="discrete" repeatCount="indefinite" begin="0s"/>
</g>
<g id="frame3" opacity="0">

<path d="M0,0 L9,1 L25,9 L41,20 L55,30 L68,38 L77,44 L81,49 L91,55 L93,58 L93,117 L91,141 L92,166 L92,213 L88,238 L88,270 L90,286 L91,320 L95,376 L95,388 L92,394 L85,400 L60,407 L35,419 L25,425 L-4,440 L-14,444 L-21,445 L-22,446 L-31,446 L-39,441 L-46,434 L-58,418 L-74,406 L-87,395 L-101,381 L-108,373 L-116,365 L-127,356 L-147,336 L-158,322 L-172,305 L-185,287 L-195,273 L-196,270 L-201,273 L-208,281 L-222,294 L-230,300 L-236,304 L-250,316 L-261,325 L-271,334 L-288,347 L-298,352 L-308,352 L-321,347 L-337,338 L-351,328 L-353,324 L-352,317 L-351,314 L-352,303 L-352,143 L-353,124 L-354,122 L-354,113 L-348,103 L-337,92 L-322,82 L-310,76 L-303,76 L-298,80 L-295,85 L-287,91 L-278,100 L-270,107 L-261,119 L-248,132 L-235,141 L-224,148 L-213,157 L-204,165 L-193,172 L-164,143 L-156,136 L-144,125 L-136,118 L-126,109 L-116,100 L-106,90 L-98,83 L-90,75 L-82,68 L-66,53 L-54,40 L-38,24 L-25,14 L-18,8 L-8,2 Z M-26,133 L-39,143 L-53,153 L-74,169 L-93,183 L-114,199 L-128,210 L-136,217 L-131,222 L-115,231 L-95,244 L-86,251 L-68,259 L-45,269 L-31,277 L-24,283 L-22,283 L-22,258 L-26,214 L-26,152 L-24,138 L-24,133 Z M-307,161 L-305,226 L-306,253 L-306,269 L-305,274 L-301,272 L-293,264 L-282,255 L-275,248 L-267,241 L-254,231 L-251,229 L-253,225 L-260,215 L-266,207 L-278,194 L-289,180 L-297,172 L-305,161 Z " fill="#0079CB" transform="translate(368,14)"/>

<animate attributeName="opacity" dur="0.560000s" values="0;1;0" keyTimes="0;0.750000;1.000000" calcMode="discrete" repeatCount="indefinite" begin="0s"/>
</g>
</g>
</svg>
