<?xml version="1.0" encoding="UTF-8" standalone="yes"?>
<svg xmlns="http://www.w3.org/2000/svg" width="480" height="470" viewBox="0 0 480 470"><title>Generated Animation</title>
<desc>4 frames, 0.520s duration</desc>
<g id="animationGroup">
<g id="frame0" opacity="0">

<path d="M0,0 L7,0 L19,3 L29,10 L36,18 L39,26 L43,52 L46,80 L46,94 L42,132 L40,143 L38,159 L36,168 L35,178 L35,188 L38,221 L42,249 L46,271 L47,280 L49,293 L52,323 L54,342 L56,349 L56,362 L53,374 L46,387 L44,400 L40,408 L30,419 L17,426 L7,427 L-1,428 L-14,430 L-33,428 L-48,424 L-64,421 L-75,421 L-110,427 L-133,430 L-155,434 L-203,438 L-230,440 L-252,442 L-266,442 L-286,438 L-313,432 L-340,424 L-353,417 L-369,406 L-376,398 L-380,387 L-382,365 L-382,336 L-380,293 L-378,274 L-376,248 L-373,225 L-372,211 L-371,182 L-370,169 L-370,156 L-372,133 L-378,100 L-381,70 L-381,52 L-377,37 L-372,27 L-367,21 L-359,17 L-334,11 L-328,10 L-285,9 L-275,10 L-251,10 L-224,8 L-178,7 L-164,5 L-134,3 L-69,4 L-58,5 L-33,5 L-19,4 L-8,1 Z " fill="#4C4C4B" transform="translate(395,19)"/>
<path d="M0,0 L8,0 L14,4 L18,8 L22,29 L24,50 L25,56 L25,89 L20,95 L11,98 L6,102 L-12,108 L-26,115 L-40,119 L-47,121 L-66,123 L-80,127 L-76,129 L-63,133 L-51,138 L-35,146 L-25,150 L-3,152 L8,156 L14,161 L16,171 L19,199 L20,234 L21,235 L21,244 L17,249 L12,252 L-1,254 L-8,256 L-26,259 L-40,263 L-50,267 L-66,274 L-81,279 L-94,283 L-106,288 L-123,294 L-144,300 L-157,304 L-175,308 L-182,311 L-194,314 L-208,315 L-217,322 L-219,323 L-225,323 L-230,318 L-231,311 L-232,281 L-233,277 L-234,263 L-235,261 L-236,241 L-233,236 L-231,234 L-221,234 L-213,229 L-205,225 L-192,220 L-176,214 L-160,209 L-147,205 L-145,204 L-145,201 L-161,195 L-176,189 L-193,181 L-212,176 L-220,174 L-228,167 L-233,158 L-237,152 L-238,148 L-238,83 L-233,77 L-231,76 L-223,76 L-217,77 L-198,67 L-183,62 L-165,57 L-138,48 L-117,40 L-91,30 L-64,21 L-50,17 L-27,10 L-10,4 Z " fill="#FE9602" transform="translate(343,67)"/>
<path d="M0,0 L18,0 L36,6 L49,12 L49,14 L59,16 L64,18 L83,20 L98,21 L111,25 L112,26 L119,27 L135,35 L137,36 L139,34 L141,40 L141,49 L137,54 L132,57 L118,57 L109,54 L98,49 L91,47 L62,45 L45,40 L36,36 L22,29 L9,25 L0,22 L-16,17 L-23,13 L-25,9 L-22,4 L-17,2 L-1,1 Z " fill="#F16A2F" transform="translate(223,262)"/>
<path d="M0,0 L7,1 L27,4 L48,8 L54,11 L62,14 L69,15 L91,15 L97,19 L111,22 L111,24 L106,27 L92,27 L83,24 L72,19 L65,17 L36,15 L19,10 L10,6 L0,1 Z " fill="#F29338" transform="translate(249,292)"/>
<path d="M0,0 L31,2 L44,6 L45,8 L34,10 L25,10 L16,8 L1,2 Z " fill="#F29238" transform="translate(290,281)"/>
<path d="M0,0 L18,0 L36,6 L49,12 L45,13 L35,8 L24,5 L-1,2 Z " fill="#F28E31" transform="translate(223,262)"/>

<animate attributeName="opacity" dur="0.520000s" values="0;1;0" keyTimes="0;0.000000;0.250000" calcMode="discrete" repeatCount="indefinite" begin="0s"/>
</g>
<g id="frame1" opacity="0">

<path d="M0,0 L12,0 L24,4 L32,10 L38,18 L43,29 L45,45 L45,77 L42,101 L37,133 L33,163 L33,195 L32,200 L31,214 L31,363 L33,379 L33,398 L29,408 L22,417 L17,421 L2,426 L-16,430 L-36,430 L-62,427 L-77,423 L-97,421 L-112,421 L-130,423 L-156,428 L-184,436 L-200,440 L-233,440 L-259,435 L-289,432 L-305,430 L-350,427 L-366,424 L-378,418 L-384,411 L-393,392 L-396,383 L-400,359 L-400,314 L-397,292 L-396,283 L-396,252 L-394,236 L-394,205 L-398,185 L-401,165 L-402,149 L-402,136 L-399,91 L-396,76 L-393,56 L-385,33 L-380,26 L-372,22 L-364,20 L-337,17 L-314,13 L-295,11 L-286,8 L-282,4 L-271,2 L-254,5 L-214,6 L-178,6 L-111,10 L-97,10 L-67,6 L-42,3 Z " fill="#4B4B4B" transform="translate(420,16)"/>
<path d="M0,0 L9,0 L15,4 L19,11 L22,28 L22,73 L19,84 L14,90 L9,92 L-6,94 L-24,101 L-36,105 L-52,111 L-61,114 L-64,114 L-64,116 L-58,117 L-47,121 L-40,124 L-19,131 L-8,134 L4,139 L13,145 L17,150 L19,166 L21,202 L21,231 L19,238 L11,242 L8,244 L-9,249 L-21,254 L-32,259 L-43,263 L-54,268 L-66,272 L-76,276 L-95,284 L-113,290 L-131,295 L-149,300 L-174,307 L-201,316 L-213,321 L-222,321 L-227,318 L-231,311 L-233,295 L-233,286 L-232,280 L-232,247 L-234,241 L-234,228 L-227,222 L-218,221 L-211,218 L-193,212 L-184,208 L-147,197 L-132,193 L-127,191 L-137,189 L-173,184 L-191,180 L-202,179 L-219,174 L-223,170 L-223,127 L-224,124 L-225,95 L-225,82 L-221,74 L-217,71 L-207,71 L-187,63 L-162,56 L-126,44 L-107,38 L-102,35 L-95,32 L-82,27 L-55,20 L-43,15 L-33,12 L-21,7 L-9,2 Z " fill="#F2953C" transform="translate(340,79)"/>
<path d="M0,0 L16,1 L29,5 L44,9 L62,15 L79,24 L86,27 L101,32 L113,37 L127,40 L144,41 L147,43 L146,48 L145,49 L116,49 L100,43 L89,37 L74,33 L62,27 L52,23 L43,21 L30,17 L19,13 L4,9 L1,7 L0,4 L-2,2 Z " fill="#F16A2F" transform="translate(213,269)"/>

<animate attributeName="opacity" dur="0.520000s" values="0;1;0" keyTimes="0;0.250000;0.500000" calcMode="discrete" repeatCount="indefinite" begin="0s"/>
</g>
<g id="frame2" opacity="0">

<path d="M0,0 L32,0 L71,2 L94,4 L121,5 L138,4 L156,5 L166,5 L182,8 L189,13 L195,22 L198,32 L199,39 L201,89 L202,138 L200,179 L198,212 L199,229 L201,252 L203,277 L205,354 L206,370 L206,399 L203,408 L197,418 L187,424 L176,427 L166,427 L152,426 L138,424 L124,425 L98,430 L69,438 L59,440 L36,440 L10,436 L-2,431 L-7,429 L-13,428 L-33,428 L-52,431 L-79,434 L-104,438 L-115,439 L-130,439 L-169,438 L-200,436 L-209,434 L-217,429 L-221,424 L-224,415 L-224,399 L-225,370 L-225,346 L-224,336 L-223,309 L-220,283 L-220,251 L-222,190 L-224,164 L-227,133 L-227,108 L-223,85 L-216,60 L-210,43 L-200,24 L-190,18 L-177,14 L-144,13 L-134,14 L-103,14 L-64,11 L-46,10 L-40,8 L-32,5 Z " fill="#4B4B4B" transform="translate(252,11)"/>
<path d="M0,0 L9,0 L13,3 L14,17 L12,31 L12,74 L9,94 L4,100 L-23,106 L-34,109 L-47,112 L-68,119 L-71,121 L-63,124 L-53,126 L-31,129 L-14,134 L4,140 L13,146 L18,155 L21,177 L23,193 L23,236 L19,244 L17,246 L5,246 L-22,258 L-37,265 L-61,276 L-80,284 L-97,290 L-110,295 L-135,303 L-149,305 L-162,306 L-174,308 L-203,310 L-209,312 L-219,312 L-222,310 L-225,296 L-227,285 L-228,282 L-228,272 L-227,268 L-226,247 L-225,238 L-220,231 L-214,228 L-203,225 L-195,222 L-181,219 L-163,214 L-149,209 L-136,205 L-120,197 L-118,194 L-139,195 L-162,195 L-187,192 L-199,191 L-208,189 L-218,184 L-224,179 L-231,171 L-240,163 L-242,158 L-242,138 L-239,126 L-236,119 L-232,95 L-228,86 L-223,80 L-221,80 L-219,76 L-209,74 L-181,70 L-157,64 L-136,57 L-126,52 L-110,44 L-97,38 L-84,33 L-75,29 L-63,25 L-51,20 L-43,16 L-19,8 Z " fill="#F2953C" transform="translate(342,74)"/>
<path d="M0,0 L10,0 L26,4 L44,8 L67,16 L77,21 L87,29 L96,37 L106,42 L121,44 L125,47 L126,52 L122,57 L113,57 L102,53 L90,47 L87,45 L78,43 L68,39 L51,29 L30,18 L18,15 L4,11 L-8,10 L-14,8 L-12,3 L-7,1 Z " fill="#F16A2F" transform="translate(237,263)"/>

<animate attributeName="opacity" dur="0.520000s" values="0;1;0" keyTimes="0;0.500000;0.750000" calcMode="discrete" repeatCount="indefinite" begin="0s"/>
</g>
<g id="frame3" opacity="0">

<path d="M0,0 L60,0 L83,5 L110,8 L147,9 L162,10 L183,8 L225,4 L237,5 L251,10 L257,15 L261,23 L265,36 L267,48 L268,127 L274,144 L277,160 L278,193 L279,212 L280,255 L281,275 L280,296 L280,315 L284,334 L284,343 L283,352 L282,377 L279,393 L275,402 L271,408 L262,414 L247,421 L231,423 L208,423 L196,425 L172,426 L148,430 L109,430 L84,427 L77,425 L70,426 L57,428 L48,429 L24,430 L15,432 L7,432 L3,431 L-41,428 L-56,425 L-74,425 L-79,424 L-105,422 L-121,419 L-129,415 L-136,407 L-141,403 L-144,397 L-145,379 L-145,367 L-141,355 L-142,338 L-147,303 L-149,291 L-150,277 L-150,209 L-151,180 L-153,165 L-154,146 L-152,126 L-147,101 L-142,75 L-138,50 L-134,35 L-129,29 L-116,24 L-107,17 L-94,11 L-73,6 L-65,5 L-37,4 L-26,2 Z " fill="#4C4C4C" transform="translate(172,21)"/>
<path d="M0,0 L8,0 L12,4 L14,9 L15,22 L16,25 L16,43 L15,71 L11,80 L4,87 L-4,93 L-13,98 L-29,102 L-35,104 L-49,107 L-62,111 L-74,116 L-62,123 L-45,129 L-30,136 L-9,142 L10,143 L20,148 L23,153 L24,159 L24,184 L23,209 L21,215 L20,224 L15,227 L9,235 L-1,242 L-13,244 L-23,250 L-32,252 L-45,255 L-53,257 L-62,261 L-75,265 L-99,275 L-112,281 L-130,287 L-144,290 L-157,292 L-175,300 L-188,306 L-213,315 L-218,317 L-229,317 L-237,311 L-241,306 L-244,299 L-244,288 L-234,259 L-231,244 L-228,225 L-224,219 L-221,216 L-194,207 L-175,202 L-159,196 L-150,194 L-139,191 L-133,188 L-131,188 L-133,185 L-147,184 L-160,180 L-177,177 L-193,172 L-211,166 L-222,162 L-228,154 L-230,147 L-232,125 L-232,111 L-231,80 L-228,74 L-222,69 L-211,65 L-201,62 L-186,57 L-169,51 L-156,46 L-139,41 L-129,39 L-115,35 L-100,32 L-85,28 L-55,20 L-50,16 L-39,11 L-26,9 L-17,8 L-4,1 Z " fill="#F2953C" transform="translate(341,78)"/>
<path d="M0,0 L21,0 L39,6 L55,14 L74,23 L95,28 L126,28 L140,32 L143,33 L143,40 L140,42 L129,42 L120,36 L94,36 L69,32 L51,25 L35,19 L19,15 L-6,15 L-10,11 L-10,6 L-12,5 L-8,4 L-9,1 Z " fill="#F16A2F" transform="translate(218,262)"/>

<animate attributeName="opacity" dur="0.520000s" values="0;1;0" keyTimes="0;0.750000;1.000000" calcMode="discrete" repeatCount="indefinite" begin="0s"/>
</g>
</g>
</svg>
