<?xml version="1.0" encoding="UTF-8" standalone="yes"?>
<svg xmlns="http://www.w3.org/2000/svg" width="480" height="469" viewBox="0 0 480 469"><title>Generated Animation</title>
<desc>4 frames, 0.520s duration</desc>
<g id="animationGroup">
<g id="frame0" opacity="0">

<path d="M0,0 L33,0 L52,2 L57,4 L82,6 L94,8 L105,15 L113,25 L122,36 L136,46 L162,58 L168,62 L178,72 L188,89 L194,99 L203,119 L208,128 L212,143 L218,161 L222,180 L223,187 L223,227 L221,253 L217,273 L213,287 L210,299 L197,330 L190,343 L178,359 L161,376 L153,383 L143,392 L128,403 L117,410 L106,418 L88,428 L85,429 L71,429 L55,432 L25,433 L11,434 L-4,439 L-14,439 L-29,437 L-57,431 L-67,432 L-82,428 L-98,420 L-106,414 L-116,404 L-132,392 L-140,384 L-148,377 L-159,365 L-168,351 L-180,333 L-192,312 L-200,302 L-205,290 L-212,268 L-215,252 L-216,234 L-215,209 L-212,188 L-207,166 L-201,144 L-192,119 L-184,102 L-175,90 L-167,80 L-152,66 L-141,55 L-135,48 L-133,48 L-133,46 L-131,46 L-131,44 L-123,37 L-109,26 L-101,21 L-82,14 L-62,9 L-38,5 L-29,3 L-6,1 Z " fill="#323131" transform="translate(228,13)"/>
<path d="M0,0 L9,2 L24,7 L32,12 L41,18 L50,22 L66,24 L77,24 L88,22 L103,21 L112,18 L126,18 L150,25 L159,27 L170,27 L177,24 L190,15 L200,11 L218,3 L227,1 L232,1 L236,15 L236,31 L234,52 L234,58 L239,70 L241,77 L248,90 L252,104 L256,121 L256,157 L250,176 L241,187 L231,195 L220,202 L210,208 L195,215 L187,219 L180,220 L157,220 L155,222 L156,228 L164,245 L167,254 L168,260 L169,279 L169,307 L167,317 L167,328 L170,334 L175,337 L175,338 L159,341 L129,342 L115,343 L100,348 L90,348 L75,346 L47,340 L52,335 L57,330 L62,323 L64,317 L64,303 L63,290 L61,286 L59,285 L41,285 L26,289 L14,289 L3,285 L-6,279 L-14,270 L-18,261 L-21,246 L-25,240 L-25,238 L-29,236 L-42,228 L-45,223 L-45,215 L-40,211 L-33,210 L-24,218 L-14,232 L-7,240 L8,250 L19,260 L31,266 L45,266 L55,260 L64,252 L74,233 L73,226 L69,224 L48,222 L29,220 L18,212 L9,202 L1,189 L-9,170 L-17,153 L-20,140 L-20,101 L-16,87 L-11,70 L-9,66 L-10,15 L-6,5 Z " fill="#FEFEFE" transform="translate(124,104)"/>
<path d="M0,0 L5,0 L14,8 L24,22 L31,30 L38,35 L35,36 L33,43 L31,45 L25,45 L20,41 L20,46 L19,46 L17,36 L13,30 L13,28 L9,26 L-4,18 L-7,13 L-7,5 L-2,1 Z " fill="#F5F5F5" transform="translate(86,314)"/>
<path d="M0,0 L8,1 L12,6 L19,11 L16,12 L14,19 L12,21 L6,21 L1,17 L1,22 L0,22 L-2,12 L-5,7 L-5,3 L-1,1 Z " fill="#F0F0F0" transform="translate(105,338)"/>
<path d="M0,0 L6,0 L9,3 L9,9 L6,12 L0,12 L-3,8 L-3,3 Z " fill="#434242" transform="translate(135,368)"/>
<path d="M0,0 L1,2 L-1,5 L-3,7 L-4,10 L-7,12 L-10,12 L-10,15 L-17,21 L-18,23 L-15,24 L-20,24 L-21,24 L-25,28 L-28,31 L-28,28 L-21,20 L-11,11 Z " fill="#3A3939" transform="translate(85,70)"/>
<path d="M0,0 L6,0 L8,2 L8,8 L6,10 L0,10 L-2,8 L-2,2 Z " fill="#393838" transform="translate(111,349)"/>
<path d="M0,0 L5,0 L7,2 L7,7 L5,9 L0,8 L-1,7 L-1,1 Z " fill="#3A3939" transform="translate(166,376)"/>
<path d="M0,0 L1,3 L-2,7 L-9,11 L-12,13 L-14,11 Z " fill="#3A3939" transform="translate(119,39)"/>
<path d="M0,0 L6,0 L7,5 L5,7 L0,6 L-1,1 Z " fill="#4C4C4C" transform="translate(154,376)"/>
<path d="M0,0 L5,1 L6,6 L5,7 L0,7 L-1,6 L-1,1 Z " fill="#3F3E3E" transform="translate(91,325)"/>
<path d="M0,0 L4,1 L4,3 L6,3 L11,9 L14,12 L12,14 L1,3 Z " fill="#3F3E3E" transform="translate(74,382)"/>
<path d="M0,0 L7,0 L6,3 L8,3 L8,5 L5,5 L5,7 L2,6 L0,9 Z " fill="#393838" transform="translate(363,171)"/>
<path d="M0,0 L5,1 L4,6 L-1,5 Z " fill="#3C3B3B" transform="translate(123,362)"/>
<path d="M0,0 L4,1 L0,5 L-9,3 L-5,1 Z " fill="#3A3939" transform="translate(166,22)"/>
<path d="M0,0 L4,1 L3,6 L-1,5 Z " fill="#474646" transform="translate(105,338)"/>
<path d="M0,0 L2,1 L2,10 L0,10 L-1,12 L-2,7 Z " fill="#3A3939" transform="translate(21,179)"/>
<path d="M0,0 L2,4 L-1,8 L-2,11 L-4,11 L-1,1 Z " fill="#3A3939" transform="translate(33,142)"/>
<path d="M0,0 L1,0 L2,7 L1,8 L0,17 L-1,17 L-1,6 Z " fill="#7B7A7A" transform="translate(291,415)"/>
<path d="M0,0 L2,2 L-1,7 L-5,8 Z " fill="#3B3A3A" transform="translate(51,105)"/>
<path d="M0,0 L4,2 L3,5 L0,6 L-1,1 Z " fill="#464545" transform="translate(154,376)"/>
<path d="M0,0 L2,0 L1,3 L-4,5 L-8,4 Z " fill="#535252" transform="translate(330,313)"/>
<path d="M0,0 L3,1 L-1,5 L-5,6 L-2,2 L0,2 Z " fill="#434342" transform="translate(95,59)"/>

<animate attributeName="opacity" dur="0.520000s" values="0;1;0" keyTimes="0;0.000000;0.250000" calcMode="discrete" repeatCount="indefinite" begin="0s"/>
</g>
<g id="frame1" opacity="0">

<path d="M0,0 L27,0 L42,2 L77,5 L100,11 L125,18 L136,25 L152,38 L163,51 L171,60 L194,75 L202,84 L210,97 L216,111 L226,141 L235,156 L241,174 L243,188 L247,239 L247,247 L244,266 L241,276 L231,306 L225,316 L213,335 L202,353 L196,363 L187,374 L178,384 L171,392 L163,400 L145,413 L127,426 L109,439 L102,442 L28,441 L-23,439 L-40,438 L-52,438 L-68,432 L-79,425 L-92,413 L-100,406 L-107,399 L-116,392 L-131,378 L-136,373 L-144,365 L-154,350 L-168,327 L-176,311 L-190,276 L-193,264 L-197,235 L-197,201 L-191,176 L-184,155 L-175,134 L-167,118 L-157,101 L-143,80 L-130,63 L-116,48 L-108,41 L-95,32 L-80,23 L-61,15 L-45,11 L-23,8 L-8,2 Z " fill="#323131" transform="translate(209,8)"/>
<path d="M0,0 L4,5 L7,9 L11,22 L13,35 L13,45 L10,57 L10,67 L13,72 L19,77 L25,91 L27,101 L28,102 L28,140 L24,154 L16,175 L8,189 L-7,204 L-15,210 L-26,218 L-42,226 L-61,228 L-69,231 L-69,236 L-63,243 L-61,251 L-60,305 L-60,335 L-56,342 L-49,347 L-49,348 L-111,348 L-162,346 L-178,345 L-174,343 L-168,338 L-164,329 L-164,295 L-169,290 L-196,288 L-216,287 L-228,283 L-234,279 L-241,273 L-253,250 L-262,238 L-271,231 L-275,224 L-275,216 L-273,215 L-264,215 L-247,221 L-235,231 L-225,244 L-217,256 L-210,263 L-203,266 L-190,266 L-185,265 L-169,264 L-161,259 L-156,249 L-152,237 L-150,233 L-151,226 L-153,224 L-164,221 L-185,214 L-197,209 L-208,201 L-214,196 L-223,185 L-232,175 L-240,158 L-244,148 L-248,127 L-248,103 L-245,88 L-240,76 L-233,64 L-233,60 L-237,58 L-237,28 L-234,5 L-233,2 L-225,3 L-211,6 L-203,7 L-184,17 L-173,26 L-165,30 L-152,30 L-144,26 L-134,23 L-120,22 L-110,20 L-96,20 L-83,22 L-75,24 L-62,31 L-58,34 L-50,34 L-42,29 L-30,22 L-12,8 Z " fill="#FDFDFD" transform="translate(348,101)"/>
<path d="M0,0 L6,0 L10,4 L10,11 L6,15 L0,15 L-4,10 L-4,4 Z " fill="#3A3939" transform="translate(143,371)"/>
<path d="M0,0 L7,0 L10,3 L10,10 L7,13 L0,13 L-3,9 L-2,2 Z " fill="#3E3D3D" transform="translate(164,372)"/>
<path d="M0,0 L6,0 L9,2 L9,9 L6,12 L1,12 L-3,8 L-3,3 Z " fill="#3C3B3B" transform="translate(110,354)"/>
<path d="M0,0 L6,0 L9,3 L8,8 L5,11 L0,10 L-2,8 L-2,2 Z " fill="#3D3C3C" transform="translate(101,339)"/>
<path d="M0,0 L5,0 L7,2 L7,7 L5,9 L0,9 L-2,7 L-2,2 Z " fill="#3F3F3F" transform="translate(127,369)"/>
<path d="M0,0 L5,1 L6,5 L4,7 L-1,6 L-1,1 Z " fill="#4A4A4A" transform="translate(90,327)"/>

<animate attributeName="opacity" dur="0.520000s" values="0;1;0" keyTimes="0;0.250000;0.500000" calcMode="discrete" repeatCount="indefinite" begin="0s"/>
</g>
<g id="frame2" opacity="0">

<path d="M0,0 L30,0 L47,2 L62,7 L81,15 L94,20 L106,26 L114,30 L125,38 L133,45 L144,58 L151,68 L165,83 L171,92 L178,101 L187,117 L192,128 L200,157 L202,171 L204,201 L209,221 L209,245 L204,280 L198,300 L190,316 L186,325 L181,337 L172,348 L161,361 L152,372 L146,379 L138,386 L125,399 L111,410 L96,420 L81,428 L69,431 L56,430 L53,431 L41,432 L-4,432 L-20,435 L-90,435 L-111,426 L-127,417 L-140,407 L-153,396 L-163,387 L-178,372 L-185,364 L-192,356 L-203,342 L-210,331 L-221,302 L-226,273 L-230,244 L-233,229 L-235,214 L-236,197 L-236,183 L-232,165 L-225,146 L-211,117 L-198,96 L-189,84 L-180,73 L-168,61 L-160,54 L-153,47 L-140,37 L-125,25 L-111,17 L-90,8 L-83,6 L-67,6 L-63,7 L-49,7 L-17,1 Z " fill="#323131" transform="translate(254,13)"/>
<path d="M0,0 L11,1 L30,9 L43,19 L54,29 L61,31 L67,31 L72,29 L100,28 L103,27 L142,27 L160,25 L168,23 L177,22 L194,13 L208,6 L219,3 L225,3 L229,9 L230,46 L231,65 L237,77 L241,88 L243,91 L245,101 L247,104 L248,120 L248,145 L241,164 L232,181 L224,192 L212,206 L204,212 L180,222 L174,224 L154,225 L150,227 L149,230 L149,238 L152,243 L157,248 L163,256 L166,263 L166,279 L163,294 L163,314 L165,325 L166,326 L168,339 L169,342 L172,343 L169,345 L124,345 L108,348 L70,348 L51,347 L57,337 L57,315 L55,304 L50,299 L45,296 L41,295 L27,294 L17,292 L8,291 L-1,286 L-12,277 L-20,267 L-25,255 L-33,245 L-46,235 L-50,231 L-51,224 L-48,219 L-44,217 L-36,217 L-29,220 L-22,227 L-10,245 L-3,255 L7,261 L31,268 L42,268 L50,266 L58,259 L61,256 L64,247 L67,237 L66,233 L61,230 L38,227 L22,219 L15,214 L5,209 L-3,203 L-11,195 L-19,181 L-25,164 L-27,149 L-27,120 L-26,105 L-21,83 L-16,74 L-9,67 L-8,65 L-7,33 L-6,17 L-5,15 L-4,3 Z " fill="#FDFDFD" transform="translate(126,100)"/>
<path d="M0,0 L7,0 L11,3 L11,9 L7,13 L0,13 L-3,9 L-2,2 Z " fill="#3D3C3C" transform="translate(153,375)"/>
<path d="M0,0 L6,0 L9,2 L9,8 L7,11 L0,11 L-2,9 L-2,2 Z " fill="#3C3B3B" transform="translate(128,369)"/>
<path d="M0,0 L5,1 L6,6 L5,8 L0,8 L-2,6 L-1,1 Z " fill="#414040" transform="translate(113,357)"/>
<path d="M0,0 L5,0 L6,5 L4,7 L0,6 L-1,1 Z " fill="#434242" transform="translate(88,329)"/>
<path d="M0,0 L4,0 L4,5 L-1,4 Z " fill="#434242" transform="translate(103,341)"/>
<path d="M0,0 L2,0 L-1,9 L-4,10 L-2,4 Z " fill="#403F3F" transform="translate(36,144)"/>

<animate attributeName="opacity" dur="0.520000s" values="0;1;0" keyTimes="0;0.500000;0.750000" calcMode="discrete" repeatCount="indefinite" begin="0s"/>
</g>
<g id="frame3" opacity="0">

<path d="M0,0 L25,0 L34,3 L57,6 L94,7 L110,10 L120,15 L132,24 L144,32 L167,45 L181,59 L187,68 L197,79 L207,92 L219,114 L227,130 L234,146 L240,164 L242,179 L243,189 L243,262 L239,287 L234,299 L220,326 L211,341 L196,365 L189,374 L180,384 L173,391 L165,398 L156,406 L142,414 L131,418 L117,423 L103,430 L91,430 L87,429 L72,433 L56,432 L51,431 L25,431 L20,432 L-9,433 L-56,433 L-68,427 L-80,418 L-89,411 L-100,402 L-110,395 L-124,385 L-136,374 L-145,364 L-156,348 L-162,338 L-170,317 L-178,298 L-184,280 L-194,250 L-196,238 L-197,221 L-197,202 L-193,178 L-185,150 L-178,131 L-168,110 L-159,95 L-152,85 L-146,77 L-137,69 L-126,60 L-116,53 L-108,46 L-99,38 L-87,30 L-76,23 L-47,10 L-32,6 L-7,1 Z " fill="#323131" transform="translate(211,16)"/>
<path d="M0,0 L14,1 L28,5 L42,12 L53,22 L60,27 L81,26 L105,25 L109,24 L130,22 L149,22 L158,24 L159,25 L171,25 L185,21 L205,14 L214,11 L230,6 L233,7 L238,23 L238,54 L235,62 L235,70 L242,79 L248,93 L251,98 L256,133 L256,148 L253,159 L248,175 L241,189 L231,202 L215,218 L207,224 L197,229 L183,234 L169,234 L163,233 L160,236 L160,242 L164,247 L166,255 L166,276 L165,287 L165,306 L169,320 L171,333 L176,343 L178,347 L163,351 L147,350 L142,349 L116,349 L111,350 L82,351 L51,351 L48,349 L53,344 L60,333 L63,326 L66,317 L66,299 L61,293 L58,292 L47,292 L34,293 L16,293 L3,287 L-6,280 L-12,272 L-18,254 L-23,247 L-39,235 L-44,229 L-45,224 L-34,224 L-18,228 L-7,234 L4,245 L12,255 L25,265 L32,268 L48,268 L55,265 L63,260 L68,253 L71,246 L75,239 L74,232 L70,229 L48,227 L36,223 L19,210 L11,204 L5,197 L-3,181 L-11,158 L-14,136 L-14,104 L-10,88 L-3,67 L-1,63 L3,61 L4,59 L4,52 L0,39 L-3,32 L-4,19 L-5,11 Z " fill="#FDFDFD" transform="translate(120,98)"/>
<path d="M0,0 L6,0 L11,3 L12,5 L12,12 L7,17 L-1,17 L-5,12 L-5,5 Z " fill="#3C3B3B" transform="translate(138,366)"/>
<path d="M0,0 L7,0 L11,3 L11,10 L9,14 L0,14 L-3,10 L-3,3 Z " fill="#3C3B3B" transform="translate(158,372)"/>
<path d="M0,0 L6,0 L9,3 L9,10 L6,13 L0,13 L-3,9 L-3,3 Z " fill="#3A3939" transform="translate(120,361)"/>
<path d="M0,0 L6,0 L9,3 L9,9 L6,12 L0,12 L-3,9 L-3,3 Z " fill="#3C3B3B" transform="translate(102,335)"/>
<path d="M0,0 L5,0 L7,2 L7,8 L5,10 L0,10 L-2,8 L-2,2 Z " fill="#434242" transform="translate(109,350)"/>
<path d="M0,0 L5,1 L7,3 L6,8 L4,10 L-1,9 L-2,8 L-2,2 Z " fill="#414040" transform="translate(92,326)"/>
<path d="M0,0 L1,0 L2,8 L2,27 L1,32 L0,32 L-1,23 L-1,4 Z " fill="#3C3B3B" transform="translate(15,214)"/>
<path d="M0,0 L4,1 L1,1 L-1,5 L-2,11 L-4,10 L-4,4 Z " fill="#4F4F4F" transform="translate(283,330)"/>
<path d="M0,0 L5,1 L3,3 L-5,3 L-5,1 Z " fill="#454444" transform="translate(185,123)"/>

<animate attributeName="opacity" dur="0.520000s" values="0;1;0" keyTimes="0;0.750000;1.000000" calcMode="discrete" repeatCount="indefinite" begin="0s"/>
</g>
</g>
</svg>
